<mxfile host="app.diagrams.net" modified="2022-05-14T21:50:14.585Z" agent="5.0 (Windows NT 10.0; Win64; x64) AppleWebKit/537.36 (KHTML, like Gecko) Chrome/101.0.4951.54 Safari/537.36" etag="iA-juaPo8erjGSFhTEyC" version="15.3.8" type="github">
  <diagram id="NkUVB_MuAY6k-S3Yqs2I" name="Page-1">
    <mxGraphModel dx="1185" dy="662" grid="0" gridSize="10" guides="1" tooltips="1" connect="1" arrows="1" fold="1" page="0" pageScale="1" pageWidth="827" pageHeight="1169" math="0" shadow="0">
      <root>
        <mxCell id="0" />
        <mxCell id="1" parent="0" />
        <mxCell id="TmIskUd6S_NqrXWgK_SJ-1" value="" style="endArrow=blockThin;dashed=1;html=1;strokeWidth=3;jumpSize=0;jumpStyle=arc;endSize=6;curved=1;endFill=1;" edge="1" parent="1">
          <mxGeometry width="50" height="50" relative="1" as="geometry">
            <mxPoint x="341" y="343" as="sourcePoint" />
            <mxPoint x="1623" y="343" as="targetPoint" />
          </mxGeometry>
        </mxCell>
        <mxCell id="TmIskUd6S_NqrXWgK_SJ-2" value="&lt;font style=&quot;font-size: 22px&quot;&gt;Renesance&lt;/font&gt;" style="text;html=1;strokeColor=none;fillColor=none;align=center;verticalAlign=middle;whiteSpace=wrap;rounded=0;" vertex="1" parent="1">
          <mxGeometry x="430" y="313" width="145" height="20" as="geometry" />
        </mxCell>
        <mxCell id="TmIskUd6S_NqrXWgK_SJ-3" value="&lt;i&gt;Časová osa&lt;/i&gt;" style="text;html=1;strokeColor=none;fillColor=none;align=center;verticalAlign=middle;whiteSpace=wrap;rounded=0;" vertex="1" parent="1">
          <mxGeometry x="1591" y="311" width="84" height="20" as="geometry" />
        </mxCell>
        <mxCell id="TmIskUd6S_NqrXWgK_SJ-4" value="&lt;font style=&quot;font-size: 22px&quot;&gt;Romantismus&lt;/font&gt;" style="text;html=1;strokeColor=none;fillColor=none;align=center;verticalAlign=middle;whiteSpace=wrap;rounded=0;" vertex="1" parent="1">
          <mxGeometry x="1108" y="313" width="174" height="20" as="geometry" />
        </mxCell>
        <mxCell id="TmIskUd6S_NqrXWgK_SJ-5" value="&lt;font style=&quot;font-size: 22px&quot;&gt;Baroko&lt;br&gt;&lt;/font&gt;" style="text;html=1;strokeColor=none;fillColor=none;align=center;verticalAlign=middle;whiteSpace=wrap;rounded=0;" vertex="1" parent="1">
          <mxGeometry x="670" y="313" width="145" height="20" as="geometry" />
        </mxCell>
        <mxCell id="TmIskUd6S_NqrXWgK_SJ-6" value="" style="endArrow=none;html=1;strokeWidth=1;strokeColor=#8A8A8A;" edge="1" parent="1">
          <mxGeometry width="50" height="50" relative="1" as="geometry">
            <mxPoint x="856" y="548" as="sourcePoint" />
            <mxPoint x="856" y="362.0000000000002" as="targetPoint" />
          </mxGeometry>
        </mxCell>
        <mxCell id="TmIskUd6S_NqrXWgK_SJ-7" value="" style="endArrow=none;html=1;strokeWidth=1;strokeColor=#8A8A8A;" edge="1" parent="1">
          <mxGeometry width="50" height="50" relative="1" as="geometry">
            <mxPoint x="1081" y="540" as="sourcePoint" />
            <mxPoint x="1081" y="353.9999999999998" as="targetPoint" />
          </mxGeometry>
        </mxCell>
        <mxCell id="TmIskUd6S_NqrXWgK_SJ-8" value="&lt;font style=&quot;font-size: 22px&quot;&gt;Surrealismus&lt;/font&gt;" style="text;html=1;strokeColor=none;fillColor=none;align=center;verticalAlign=middle;whiteSpace=wrap;rounded=0;" vertex="1" parent="1">
          <mxGeometry x="1066" y="220" width="174" height="20" as="geometry" />
        </mxCell>
        <mxCell id="TmIskUd6S_NqrXWgK_SJ-9" value="18. st." style="text;html=1;strokeColor=none;fillColor=none;align=center;verticalAlign=middle;whiteSpace=wrap;rounded=0;" vertex="1" parent="1">
          <mxGeometry x="822" y="322" width="62" height="20" as="geometry" />
        </mxCell>
        <mxCell id="TmIskUd6S_NqrXWgK_SJ-10" value="14. st." style="text;html=1;strokeColor=none;fillColor=none;align=center;verticalAlign=middle;whiteSpace=wrap;rounded=0;" vertex="1" parent="1">
          <mxGeometry x="352" y="321" width="62" height="20" as="geometry" />
        </mxCell>
        <mxCell id="TmIskUd6S_NqrXWgK_SJ-11" value="&lt;font style=&quot;font-size: 22px&quot;&gt;Realismus&lt;/font&gt;" style="text;html=1;strokeColor=none;fillColor=none;align=center;verticalAlign=middle;whiteSpace=wrap;rounded=0;" vertex="1" parent="1">
          <mxGeometry x="1344" y="313" width="174" height="20" as="geometry" />
        </mxCell>
        <mxCell id="TmIskUd6S_NqrXWgK_SJ-12" value="&lt;font style=&quot;font-size: 22px&quot;&gt;Naturalismus&lt;/font&gt;" style="text;html=1;strokeColor=none;fillColor=none;align=center;verticalAlign=middle;whiteSpace=wrap;rounded=0;" vertex="1" parent="1">
          <mxGeometry x="1344" y="287" width="174" height="20" as="geometry" />
        </mxCell>
        <mxCell id="TmIskUd6S_NqrXWgK_SJ-13" value="16. st." style="text;html=1;strokeColor=none;fillColor=none;align=center;verticalAlign=middle;whiteSpace=wrap;rounded=0;" vertex="1" parent="1">
          <mxGeometry x="600" y="321" width="62" height="20" as="geometry" />
        </mxCell>
        <mxCell id="TmIskUd6S_NqrXWgK_SJ-14" value="" style="endArrow=none;html=1;strokeWidth=1;strokeColor=#8A8A8A;" edge="1" parent="1">
          <mxGeometry width="50" height="50" relative="1" as="geometry">
            <mxPoint x="629" y="550" as="sourcePoint" />
            <mxPoint x="629" y="363.9999999999998" as="targetPoint" />
          </mxGeometry>
        </mxCell>
        <mxCell id="TmIskUd6S_NqrXWgK_SJ-15" value="" style="endArrow=none;html=1;strokeWidth=1;strokeColor=#8A8A8A;" edge="1" parent="1">
          <mxGeometry width="50" height="50" relative="1" as="geometry">
            <mxPoint x="382.5" y="548.9999999999998" as="sourcePoint" />
            <mxPoint x="382.5" y="363" as="targetPoint" />
          </mxGeometry>
        </mxCell>
        <mxCell id="TmIskUd6S_NqrXWgK_SJ-16" value="18. st." style="text;html=1;strokeColor=none;fillColor=none;align=center;verticalAlign=middle;whiteSpace=wrap;rounded=0;" vertex="1" parent="1">
          <mxGeometry x="1051" y="321" width="62" height="20" as="geometry" />
        </mxCell>
        <mxCell id="TmIskUd6S_NqrXWgK_SJ-17" value="" style="endArrow=none;html=1;strokeWidth=1;strokeColor=#8A8A8A;" edge="1" parent="1">
          <mxGeometry width="50" height="50" relative="1" as="geometry">
            <mxPoint x="1312" y="540" as="sourcePoint" />
            <mxPoint x="1312" y="353.9999999999998" as="targetPoint" />
          </mxGeometry>
        </mxCell>
        <mxCell id="TmIskUd6S_NqrXWgK_SJ-18" value="19. st." style="text;html=1;strokeColor=none;fillColor=none;align=center;verticalAlign=middle;whiteSpace=wrap;rounded=0;" vertex="1" parent="1">
          <mxGeometry x="1282" y="321" width="62" height="20" as="geometry" />
        </mxCell>
        <mxCell id="TmIskUd6S_NqrXWgK_SJ-19" value="20. st." style="text;html=1;strokeColor=none;fillColor=none;align=center;verticalAlign=middle;whiteSpace=wrap;rounded=0;" vertex="1" parent="1">
          <mxGeometry x="1518" y="317" width="62" height="20" as="geometry" />
        </mxCell>
        <mxCell id="TmIskUd6S_NqrXWgK_SJ-20" value="" style="endArrow=none;html=1;strokeWidth=1;strokeColor=#8A8A8A;" edge="1" parent="1">
          <mxGeometry width="50" height="50" relative="1" as="geometry">
            <mxPoint x="1548" y="536" as="sourcePoint" />
            <mxPoint x="1548" y="350" as="targetPoint" />
          </mxGeometry>
        </mxCell>
        <mxCell id="TmIskUd6S_NqrXWgK_SJ-21" value="William Shakespeare - Romeo a Julie" style="text;html=1;strokeColor=none;fillColor=none;align=center;verticalAlign=middle;whiteSpace=wrap;rounded=0;" vertex="1" parent="1">
          <mxGeometry x="399" y="459" width="221" height="20" as="geometry" />
        </mxCell>
        <mxCell id="TmIskUd6S_NqrXWgK_SJ-22" value="Moliere - Lakomec" style="text;html=1;strokeColor=none;fillColor=none;align=center;verticalAlign=middle;whiteSpace=wrap;rounded=0;" vertex="1" parent="1">
          <mxGeometry x="895" y="459" width="144" height="20" as="geometry" />
        </mxCell>
        <mxCell id="TmIskUd6S_NqrXWgK_SJ-23" value="Nikolaj Vaseljovič Gogol" style="text;html=1;strokeColor=none;fillColor=none;align=center;verticalAlign=middle;whiteSpace=wrap;rounded=0;" vertex="1" parent="1">
          <mxGeometry x="1367" y="459" width="144" height="20" as="geometry" />
        </mxCell>
        <mxCell id="TmIskUd6S_NqrXWgK_SJ-24" value="&lt;i&gt;Evropský umělecký sloh z Itálie&lt;/i&gt;" style="text;html=1;strokeColor=none;fillColor=none;align=center;verticalAlign=middle;whiteSpace=wrap;rounded=0;" vertex="1" parent="1">
          <mxGeometry x="407" y="360" width="191" height="20" as="geometry" />
        </mxCell>
        <mxCell id="TmIskUd6S_NqrXWgK_SJ-25" value="Edgar Allan Poe - Jáma a Kyvadlo" style="text;html=1;strokeColor=none;fillColor=none;align=center;verticalAlign=middle;whiteSpace=wrap;rounded=0;" vertex="1" parent="1">
          <mxGeometry x="1101.5" y="459" width="190" height="20" as="geometry" />
        </mxCell>
        <mxCell id="TmIskUd6S_NqrXWgK_SJ-26" value="&lt;i&gt;Touha po svobodě&lt;br&gt;Každý je výjimečný, sní o něčem jiném&lt;br&gt;&lt;/i&gt;&lt;i&gt;Láska, jako jedno z témat, zpravidla nenaplněná&lt;br&gt;&lt;/i&gt;" style="text;html=1;strokeColor=none;fillColor=none;align=center;verticalAlign=middle;whiteSpace=wrap;rounded=0;" vertex="1" parent="1">
          <mxGeometry x="1089.5" y="352" width="211" height="61" as="geometry" />
        </mxCell>
        <mxCell id="TmIskUd6S_NqrXWgK_SJ-27" value="&lt;i&gt;Inspiruje především antickými vzory a zdůrazňuje střízlivý rozum, uměřenost a jasný, pravidelný řád.&lt;br&gt;&lt;/i&gt;" style="text;html=1;strokeColor=none;fillColor=none;align=center;verticalAlign=middle;whiteSpace=wrap;rounded=0;" vertex="1" parent="1">
          <mxGeometry x="860.5" y="350" width="213" height="55" as="geometry" />
        </mxCell>
        <mxCell id="TmIskUd6S_NqrXWgK_SJ-28" value="&lt;font style=&quot;font-size: 22px&quot;&gt;Moderna&lt;br&gt;&lt;/font&gt;" style="text;html=1;strokeColor=none;fillColor=none;align=center;verticalAlign=middle;whiteSpace=wrap;rounded=0;" vertex="1" parent="1">
          <mxGeometry x="1443" y="139" width="174" height="20" as="geometry" />
        </mxCell>
        <mxCell id="TmIskUd6S_NqrXWgK_SJ-30" value="" style="endArrow=blockThin;dashed=1;html=1;strokeWidth=3;jumpSize=0;jumpStyle=arc;endSize=6;curved=1;endFill=1;" edge="1" parent="1">
          <mxGeometry width="50" height="50" relative="1" as="geometry">
            <mxPoint x="217" y="830" as="sourcePoint" />
            <mxPoint x="1683" y="830" as="targetPoint" />
          </mxGeometry>
        </mxCell>
        <mxCell id="TmIskUd6S_NqrXWgK_SJ-31" value="" style="endArrow=none;html=1;strokeWidth=1;strokeColor=#8A8A8A;" edge="1" parent="1">
          <mxGeometry width="50" height="50" relative="1" as="geometry">
            <mxPoint x="1208.5799999999995" y="859" as="sourcePoint" />
            <mxPoint x="1208.5799999999995" y="795" as="targetPoint" />
          </mxGeometry>
        </mxCell>
        <mxCell id="TmIskUd6S_NqrXWgK_SJ-32" value="&lt;font style=&quot;font-size: 22px&quot;&gt;1. sv. válka&lt;/font&gt;" style="text;html=1;strokeColor=none;fillColor=none;align=center;verticalAlign=middle;whiteSpace=wrap;rounded=0;" vertex="1" parent="1">
          <mxGeometry x="880" y="795" width="174" height="20" as="geometry" />
        </mxCell>
        <mxCell id="TmIskUd6S_NqrXWgK_SJ-33" value="&lt;font style=&quot;font-size: 22px&quot;&gt;2. sv. válka&lt;/font&gt;" style="text;html=1;strokeColor=none;fillColor=none;align=center;verticalAlign=middle;whiteSpace=wrap;rounded=0;" vertex="1" parent="1">
          <mxGeometry x="1210" y="795" width="174" height="20" as="geometry" />
        </mxCell>
        <mxCell id="TmIskUd6S_NqrXWgK_SJ-34" value="" style="endArrow=none;html=1;strokeWidth=1;strokeColor=#8A8A8A;" edge="1" parent="1">
          <mxGeometry width="50" height="50" relative="1" as="geometry">
            <mxPoint x="1061" y="859" as="sourcePoint" />
            <mxPoint x="1061" y="795" as="targetPoint" />
          </mxGeometry>
        </mxCell>
        <mxCell id="TmIskUd6S_NqrXWgK_SJ-35" value="" style="endArrow=none;html=1;strokeWidth=1;strokeColor=#8A8A8A;" edge="1" parent="1">
          <mxGeometry width="50" height="50" relative="1" as="geometry">
            <mxPoint x="872.9999999999995" y="859" as="sourcePoint" />
            <mxPoint x="872.9999999999995" y="795" as="targetPoint" />
          </mxGeometry>
        </mxCell>
        <mxCell id="TmIskUd6S_NqrXWgK_SJ-36" value="" style="endArrow=none;html=1;strokeWidth=1;strokeColor=#8A8A8A;" edge="1" parent="1">
          <mxGeometry width="50" height="50" relative="1" as="geometry">
            <mxPoint x="1384" y="859" as="sourcePoint" />
            <mxPoint x="1384" y="795" as="targetPoint" />
          </mxGeometry>
        </mxCell>
        <mxCell id="TmIskUd6S_NqrXWgK_SJ-37" value="1914" style="text;html=1;strokeColor=none;fillColor=none;align=center;verticalAlign=middle;whiteSpace=wrap;rounded=0;" vertex="1" parent="1">
          <mxGeometry x="842" y="773" width="62" height="20" as="geometry" />
        </mxCell>
        <mxCell id="TmIskUd6S_NqrXWgK_SJ-38" value="1918" style="text;html=1;strokeColor=none;fillColor=none;align=center;verticalAlign=middle;whiteSpace=wrap;rounded=0;" vertex="1" parent="1">
          <mxGeometry x="1030" y="773" width="62" height="20" as="geometry" />
        </mxCell>
        <mxCell id="TmIskUd6S_NqrXWgK_SJ-39" value="1939" style="text;html=1;strokeColor=none;fillColor=none;align=center;verticalAlign=middle;whiteSpace=wrap;rounded=0;" vertex="1" parent="1">
          <mxGeometry x="1178" y="773" width="62" height="20" as="geometry" />
        </mxCell>
        <mxCell id="TmIskUd6S_NqrXWgK_SJ-40" value="1945" style="text;html=1;strokeColor=none;fillColor=none;align=center;verticalAlign=middle;whiteSpace=wrap;rounded=0;" vertex="1" parent="1">
          <mxGeometry x="1352" y="775" width="62" height="20" as="geometry" />
        </mxCell>
        <mxCell id="TmIskUd6S_NqrXWgK_SJ-41" value="" style="endArrow=none;html=1;strokeWidth=1;strokeColor=#8A8A8A;" edge="1" parent="1">
          <mxGeometry width="50" height="50" relative="1" as="geometry">
            <mxPoint x="1435.58" y="859" as="sourcePoint" />
            <mxPoint x="1435.58" y="795" as="targetPoint" />
          </mxGeometry>
        </mxCell>
        <mxCell id="TmIskUd6S_NqrXWgK_SJ-42" value="1948" style="text;html=1;strokeColor=none;fillColor=none;align=center;verticalAlign=middle;whiteSpace=wrap;rounded=0;" vertex="1" parent="1">
          <mxGeometry x="1405" y="773" width="62" height="20" as="geometry" />
        </mxCell>
        <mxCell id="TmIskUd6S_NqrXWgK_SJ-43" value="&lt;font style=&quot;font-size: 22px&quot;&gt;Komunismus&lt;/font&gt;" style="text;html=1;strokeColor=none;fillColor=none;align=center;verticalAlign=middle;whiteSpace=wrap;rounded=0;" vertex="1" parent="1">
          <mxGeometry x="1437" y="795" width="174" height="20" as="geometry" />
        </mxCell>
        <mxCell id="TmIskUd6S_NqrXWgK_SJ-44" value="1989" style="text;html=1;strokeColor=none;fillColor=none;align=center;verticalAlign=middle;whiteSpace=wrap;rounded=0;" vertex="1" parent="1">
          <mxGeometry x="1579" y="775" width="62" height="20" as="geometry" />
        </mxCell>
        <mxCell id="TmIskUd6S_NqrXWgK_SJ-45" value="" style="endArrow=none;html=1;strokeWidth=1;strokeColor=#8A8A8A;" edge="1" parent="1">
          <mxGeometry width="50" height="50" relative="1" as="geometry">
            <mxPoint x="1611" y="858.9999999999995" as="sourcePoint" />
            <mxPoint x="1611" y="795" as="targetPoint" />
          </mxGeometry>
        </mxCell>
        <mxCell id="TmIskUd6S_NqrXWgK_SJ-46" value="&lt;font style=&quot;font-size: 16px&quot;&gt;Sametová revoluce&lt;/font&gt;" style="text;html=1;align=center;verticalAlign=middle;whiteSpace=wrap;rounded=0;" vertex="1" parent="1">
          <mxGeometry x="1529.5" y="874" width="167" height="32" as="geometry" />
        </mxCell>
        <mxCell id="TmIskUd6S_NqrXWgK_SJ-47" value="&lt;font style=&quot;font-size: 22px&quot;&gt;Socialismus&lt;br&gt;&lt;/font&gt;" style="text;html=1;strokeColor=none;fillColor=none;align=center;verticalAlign=middle;whiteSpace=wrap;rounded=0;" vertex="1" parent="1">
          <mxGeometry x="1289.5" y="620" width="174" height="20" as="geometry" />
        </mxCell>
        <mxCell id="TmIskUd6S_NqrXWgK_SJ-48" value="&lt;font style=&quot;font-size: 22px&quot;&gt;Existencionalismus&lt;br&gt;&lt;/font&gt;" style="text;html=1;strokeColor=none;fillColor=none;align=center;verticalAlign=middle;whiteSpace=wrap;rounded=0;" vertex="1" parent="1">
          <mxGeometry x="1293" y="652" width="174" height="20" as="geometry" />
        </mxCell>
        <mxCell id="TmIskUd6S_NqrXWgK_SJ-49" value="&lt;div class=&quot;cxgpxx05 d1544ag0 sj5x9vvc tw6a2znq l9j0dhe7 ni8dbmo4 stjgntxs e72ty7fz qlfml3jp inkptoze jm1wdb64 qv66sw1b ljqsnud1 odn2s2vf tkr6xdv7 qttc61fc&quot; style=&quot;padding: 8px 12px ; border-radius: 18px 18px 18px 4px ; overflow-wrap: break-word ; position: relative ; overflow: hidden ; max-width: 564px ; word-break: break-word ; z-index: 1&quot;&gt;&lt;div class=&quot;rq0escxv l9j0dhe7 du4w35lb __fb-dark-mode&quot; style=&quot;z-index: 0 ; position: relative ; box-sizing: border-box&quot;&gt;&lt;div class=&quot;ii04i59q jq4qci2q g9io39s2 oo9gr5id&quot; dir=&quot;auto&quot; style=&quot;line-height: 20px&quot;&gt;&lt;span style=&quot;font-size: 15px ; font-family: inherit&quot;&gt;&lt;b&gt;Karel Jaromír Erben&lt;/b&gt; -&amp;nbsp;&lt;/span&gt;&lt;span style=&quot;font-size: 15px&quot;&gt;Představitel literárního romantismu&lt;/span&gt;&lt;/div&gt;&lt;div class=&quot;ii04i59q jq4qci2q g9io39s2 oo9gr5id&quot; dir=&quot;auto&quot; style=&quot;font-size: 15px ; line-height: 20px&quot;&gt;&lt;span style=&quot;font-family: inherit&quot;&gt;&lt;b&gt;Havlíček Borovský&lt;/b&gt; -&amp;nbsp;&lt;/span&gt;&lt;span&gt;&lt;font face=&quot;segoe ui historic, segoe ui, helvetica, arial, sans-serif&quot; style=&quot;font-size: 15px&quot;&gt;Zakladatel české žurnalistiky, satiry a literární kritiky&lt;/font&gt;&lt;/span&gt;&lt;br&gt;&lt;/div&gt;&lt;div class=&quot;ii04i59q jq4qci2q g9io39s2 oo9gr5id&quot; dir=&quot;auto&quot; style=&quot;font-size: 15px ; font-family: inherit ; line-height: 20px&quot;&gt;&lt;span style=&quot;font-family: inherit&quot;&gt;&lt;b&gt;Božena Němcová&lt;/b&gt; - Nejznámější české pohádky&lt;/span&gt;&lt;/div&gt;&lt;div class=&quot;ii04i59q jq4qci2q g9io39s2 oo9gr5id&quot; dir=&quot;auto&quot; style=&quot;font-size: 15px ; font-family: inherit ; line-height: 20px&quot;&gt;&lt;span style=&quot;font-family: inherit&quot;&gt;&lt;b&gt;Josef Kajetán Tyl&lt;/b&gt; - Významná osobnost českého divadla&lt;/span&gt;&lt;/div&gt;&lt;/div&gt;&lt;/div&gt;&lt;div class=&quot;ns4p8fja j83agx80 cbu4d94t a6sixzi8 bkfpd7mw d2edcug0 buofh1pr nred35xi&quot; style=&quot;align-items: inherit ; justify-content: flex-end ; flex-direction: column ; max-width: 100% ; display: flex ; font-family: &amp;#34;segoe ui historic&amp;#34; , &amp;#34;segoe ui&amp;#34; , &amp;#34;helvetica&amp;#34; , &amp;#34;arial&amp;#34; , sans-serif ; color: rgb(28 , 30 , 33) ; font-size: 15px&quot;&gt;&lt;/div&gt;" style="text;html=1;align=left;verticalAlign=middle;resizable=0;points=[];autosize=1;strokeWidth=1;" vertex="1" parent="1">
          <mxGeometry x="279" y="839" width="520" height="102" as="geometry" />
        </mxCell>
        <mxCell id="TmIskUd6S_NqrXWgK_SJ-50" value="18. st." style="text;html=1;strokeColor=none;fillColor=none;align=center;verticalAlign=middle;whiteSpace=wrap;rounded=0;" vertex="1" parent="1">
          <mxGeometry x="241" y="773" width="62" height="20" as="geometry" />
        </mxCell>
        <mxCell id="TmIskUd6S_NqrXWgK_SJ-51" value="" style="endArrow=none;html=1;strokeWidth=1;strokeColor=#8A8A8A;" edge="1" parent="1">
          <mxGeometry width="50" height="50" relative="1" as="geometry">
            <mxPoint x="272" y="859" as="sourcePoint" />
            <mxPoint x="272" y="795" as="targetPoint" />
          </mxGeometry>
        </mxCell>
        <mxCell id="TmIskUd6S_NqrXWgK_SJ-52" value="&lt;div class=&quot;ii04i59q jq4qci2q g9io39s2 oo9gr5id&quot; dir=&quot;auto&quot; style=&quot;font-family: inherit ; font-size: 20px ; line-height: 20px&quot;&gt;České národní obrození&lt;/div&gt;&lt;div&gt;&lt;b&gt;&lt;br&gt;&lt;/b&gt;&lt;/div&gt;" style="text;html=1;strokeColor=none;fillColor=none;align=center;verticalAlign=middle;whiteSpace=wrap;rounded=0;" vertex="1" parent="1">
          <mxGeometry x="285" y="785" width="435" height="21" as="geometry" />
        </mxCell>
        <mxCell id="TmIskUd6S_NqrXWgK_SJ-53" value="19. st." style="text;html=1;strokeColor=none;fillColor=none;align=center;verticalAlign=middle;whiteSpace=wrap;rounded=0;" vertex="1" parent="1">
          <mxGeometry x="680" y="773" width="62" height="20" as="geometry" />
        </mxCell>
        <mxCell id="TmIskUd6S_NqrXWgK_SJ-54" value="" style="endArrow=none;html=1;strokeWidth=1;strokeColor=#8A8A8A;" edge="1" parent="1">
          <mxGeometry width="50" height="50" relative="1" as="geometry">
            <mxPoint x="711" y="859" as="sourcePoint" />
            <mxPoint x="711" y="795" as="targetPoint" />
          </mxGeometry>
        </mxCell>
        <mxCell id="TmIskUd6S_NqrXWgK_SJ-55" value="" style="shape=curlyBracket;whiteSpace=wrap;html=1;rounded=1;strokeWidth=1;align=left;rotation=90;" vertex="1" parent="1">
          <mxGeometry x="1601" y="806" width="20" height="120" as="geometry" />
        </mxCell>
        <mxCell id="TmIskUd6S_NqrXWgK_SJ-56" value="&lt;font style=&quot;font-size: 22px&quot;&gt;Osvícenství&lt;br&gt;&lt;/font&gt;" style="text;html=1;strokeColor=none;fillColor=none;align=center;verticalAlign=middle;whiteSpace=wrap;rounded=0;" vertex="1" parent="1">
          <mxGeometry x="1437" y="159" width="174" height="20" as="geometry" />
        </mxCell>
        <mxCell id="TmIskUd6S_NqrXWgK_SJ-57" value="ZTRACENÁ GENERACE ﻿se označují autoři narození kolem roku 1900, kteří ve 20. letech 20. století psali o prožitcích z první světové války." style="text;html=1;align=center;verticalAlign=middle;resizable=0;points=[];autosize=1;strokeColor=none;fillColor=none;" vertex="1" parent="1">
          <mxGeometry x="625" y="1130" width="751" height="18" as="geometry" />
        </mxCell>
        <mxCell id="TmIskUd6S_NqrXWgK_SJ-58" value="John Steinbeck&lt;br&gt;Ernest Hemingway" style="text;html=1;align=center;verticalAlign=middle;resizable=0;points=[];autosize=1;strokeColor=none;fillColor=none;" vertex="1" parent="1">
          <mxGeometry x="637" y="1158" width="111" height="32" as="geometry" />
        </mxCell>
        <mxCell id="TmIskUd6S_NqrXWgK_SJ-59" value="mylně zařazen i Erich Maria Remarque, který ale vyjadřuje jiné postoje k válce - nemá skeptické pocity po návratu z války" style="text;html=1;align=center;verticalAlign=middle;resizable=0;points=[];autosize=1;strokeColor=none;fillColor=none;" vertex="1" parent="1">
          <mxGeometry x="628" y="1200" width="654" height="18" as="geometry" />
        </mxCell>
        <mxCell id="TmIskUd6S_NqrXWgK_SJ-60" value="proces formování moderního českého národa" style="text;html=1;align=center;verticalAlign=middle;resizable=0;points=[];autosize=1;strokeColor=none;fillColor=none;" vertex="1" parent="1">
          <mxGeometry x="373" y="806" width="252" height="18" as="geometry" />
        </mxCell>
      </root>
    </mxGraphModel>
  </diagram>
</mxfile>
